#!OML:ASF H:\Pregnant\Project 1\Capture day 1\Session 1\femalepreg.ASF
:FULLY-SPECIFIED
:DEGREES
323
root -7.6367 15.7681 1.24199 -161.426 1.91205 -182.134
lowerback -12.9247 -1.66897 -9.86995
upperback -0.999682 -0.587215 -0.0796114
thorax 6.32364 -0.475332 5.39803
lowerneck -22.0599 -2.10691 0.115153
upperneck 25.3976 -4.20333 6.51725
head 12.2234 -0.659835 1.80532
rclavicle -3.97569e-016 9.54166e-015
rhumerus -31.4574 -9.97291 -79.5171
rradius 30.4581
rwrist -3.34156
rhand -9.68559 -12.4922
rfingers 7.12502
rthumb 16.2864 -41.8283
lclavicle -3.97569e-016 9.54166e-015
lhumerus -24.0804 -32.4575 89.2444
lradius 37.6385
lwrist 39.2066
lhand -28.8361 -3.5396
lfingers 7.12502
lthumb -2.19343 26.4289
rfemur -60.4512 17.3525 7.22042
rtibia 32.0455
rfoot -10.2083 -17.9194
rtoes -12.6499
lfemur -17.2127 -12.9126 -26.5412
ltibia 16.6349
lfoot -13.3401 -2.6298
ltoes -2.67259
324
root -7.61634 15.7587 1.13891 -161.414 1.52003 -182.465
lowerback -12.8843 -1.75748 -10.1961
upperback -1.0258 -0.673218 0.0589013
thorax 6.2937 -0.526179 5.71651
lowerneck -22.0733 -2.31661 -0.0833485
upperneck 25.3901 -4.44323 6.5367
head 12.2375 -0.784774 1.80506
rclavicle -3.72721e-015 -2.3059e-014
rhumerus -31.4239 -10.1552 -79.1402
rradius 30.0013
rwrist -3.2524
rhand -9.06826 -12.5352
rfingers 7.12502
rthumb 16.8807 -41.8216
lclavicle -3.72721e-015 -2.3059e-014
lhumerus -24.3254 -32.4669 89.5912
lradius 37.7736
lwrist 39.2598
lhand -28.8178 -3.5349
lfingers 7.12502
lthumb -2.17572 26.4338
rfemur -60.9306 17.7935 6.04946
rtibia 31.7238
rfoot -10.447 -19.1786
rtoes -12.3247
lfemur -16.236 -12.8806 -26.8602
ltibia 15.5438
lfoot -13.1278 -3.22795
ltoes -2.68781
325
root -7.59635 15.7493 1.03262 -161.367 1.13761 -182.788
lowerback -12.9143 -1.8425 -10.4944
upperback -1.06512 -0.74897 0.195783
thorax 6.28807 -0.570967 6.01989
lowerneck -22.0706 -2.52504 -0.286249
upperneck 25.4059 -4.67337 6.53897
head 12.2572 -0.907003 1.80116
rclavicle -8.00108e-015 4.17448e-015
rhumerus -31.3574 -10.3462 -78.7431
rradius 29.4433
rwrist -3.18417
rhand -8.50238 -12.7055
rfingers 7.12502
rthumb 17.4254 -41.9444
lclavicle -8.00108e-015 4.17448e-015
lhumerus -24.586 -32.4709 89.9554
lradius 37.8483
lwrist 39.2865
lhand -28.7916 -3.48698
lfingers 7.12502
lthumb -2.1504 26.4819
rfemur -61.3907 18.1274 5.00705
rtibia 31.4832
rfoot -10.7421 -20.4528
rtoes -12.0442
lfemur -15.2505 -12.8639 -27.1598
ltibia 14.3957
lfoot -12.8814 -3.80486
ltoes -2.79642
326
root -7.57686 15.7401 0.922733 -161.284 0.761844 -183.091
lowerback -13.0197 -1.9249 -10.7509
upperback -1.11412 -0.816705 0.333311
thorax 6.31305 -0.611111 6.30218
lowerneck -22.0812 -2.73265 -0.487482
upperneck 25.4684 -4.89596 6.51548
head 12.2972 -1.02663 1.78939
rclavicle -1.68967e-015 -8.34896e-015
rhumerus -31.2587 -10.5542 -78.3247
rradius 28.7873
rwrist -3.09302
rhand -7.98649 -12.9792
rfingers 7.12502
rthumb 17.9218 -42.1735
lclavicle -1.68967e-015 -8.34896e-015
lhumerus -24.8529 -32.464 90.3305
lradius 37.8555
lwrist 39.284
lhand -28.7518 -3.42284
lfingers 7.12502
lthumb -2.11199 26.5464
rfemur -61.8118 18.3508 4.11699
rtibia 31.3104
rfoot -11.0574 -21.683
rtoes -11.8495
lfemur -14.2593 -12.8683 -27.428
ltibia 13.1983
lfoot -12.6042 -4.36547
ltoes -2.95859
327
root -7.55803 15.731 0.809556 -161.17 0.390234 -183.366
lowerback -13.1887 -1.75141 -11.0092
upperback -1.17585 -0.93515 0.467633
thorax 6.33869 -0.845592 6.5549
lowerneck -22.097 -2.93593 -0.689755
upperneck 25.5691 -5.10658 6.47507
head 12.3528 -1.14115 1.77406
rclavicle 4.96962e-015 2.28602e-015
rhumerus -31.1378 -10.7968 -77.8821
rradius 28.0442
rwrist -2.93741
rhand -7.53889 -13.3298
rfingers 7.12502
rthumb 18.3525 -42.4841
lclavicle 4.96962e-015 2.28602e-015
lhumerus -25.1242 -32.4434 90.7097
lradius 37.7926
lwrist 39.2515
lhand -28.696 -3.36614
lfingers 7.12502
lthumb -2.05809 26.6037
rfemur -62.1815 18.4744 3.38504
rtibia 31.1904
rfoot -11.3694 -22.8175
rtoes -11.6806
lfemur -13.2652 -12.8979 -27.6544
ltibia 11.9601
lfoot -12.2989 -4.898
ltoes -3.16549
328
root -7.54011 15.7217 0.69343 -161.039 0.0169724 -183.605
lowerback -13.4074 -1.81816 -11.14
upperback -1.24127 -0.993463 0.60613
thorax 6.40566 -0.882391 6.76848
lowerneck -22.1244 -3.13342 -0.890627
upperneck 25.6994 -5.30592 6.42344
head 12.422 -1.25028 1.7565
rclavicle 1.3418e-015 -1.2424e-014
rhumerus -30.9969 -11.0615 -77.4251
rradius 27.2344
rwrist -2.73028
rhand -7.18812 -13.6752
rfingers 7.12502
rthumb 18.6899 -42.7973
lclavicle 1.3418e-015 -1.2424e-014
lhumerus -25.3939 -32.3811 91.0795
lradius 37.6656
lwrist 39.1745
lhand -28.6244 -3.33348
lfingers 7.12502
lthumb -1.98894 26.637
rfemur -62.4795 18.5157 2.80872
rtibia 31.1108
rfoot -11.6689 -23.8131
rtoes -11.4635
lfemur -12.2605 -12.9542 -27.8338
ltibia 10.6903
lfoot -11.966 -5.40022
ltoes -3.41546
329
root -7.52292 15.7122 0.574464 -160.897 -0.356641 -183.807
lowerback -13.6648 -1.8771 -11.1981
upperback -1.3123 -1.04846 0.743297
thorax 6.48642 -0.916579 6.93983
lowerneck -22.1812 -3.32533 -1.07364
upperneck 25.874 -5.49632 6.3449
head 12.5134 -1.35467 1.72762
rclavicle -5.21499e-015 2.86747e-014
rhumerus -30.8458 -11.3625 -76.9559
rradius 26.3634
rwrist -2.43565
rhand -6.96769 -14.0095
rfingers 7.12502
rthumb 18.9019 -43.1111
lclavicle -5.21499e-015 2.86747e-014
lhumerus -25.6685 -32.2834 91.4353
lradius 37.4808
lwrist 39.0616
lhand -28.5375 -3.33579
lfingers 7.12502
lthumb -1.90508 26.6355
rfemur -62.6992 18.5065 2.36414
rtibia 31.0631
rfoot -11.9076 -24.6506
rtoes -11.2439
lfemur -11.2486 -13.3271 -27.9068
ltibia 9.3821
lfoot -11.5353 -5.58561
ltoes -3.70387
330
root -7.50646 15.702 0.452931 -160.753 -0.731022 -183.977
lowerback -13.947 -1.92605 -11.1852
upperback -1.38881 -1.0991 0.8744
thorax 6.57266 -0.947168 7.06479
lowerneck -22.1984 -2.52812 -1.67563
upperneck 25.896 -6.01718 6.64915
head 12.5804 -2.27362 1.70612
rclavicle 3.49116e-015 1.02374e-014
rhumerus -30.6949 -11.7151 -76.4758
rradius 25.4524
rwrist -2.05237
rhand -6.88018 -14.3328
rfingers 7.12502
rthumb 18.9861 -43.4262
lclavicle 3.49116e-015 1.02374e-014
lhumerus -25.9478 -32.1438 91.7701
lradius 37.2407
lwrist 38.9056
lhand -28.4292 -3.35092
lfingers 7.12502
lthumb -1.80048 26.6212
rfemur -62.8356 18.4636 2.03027
rtibia 31.0451
rfoot -12.1523 -25.3117
rtoes -10.8254
lfemur -10.187 -13.6924 -27.9579
ltibia 8.00585
lfoot -11.0652 -5.77899
ltoes -3.98985
331
root -7.49074 15.6912 0.328291 -160.614 -1.09828 -184.124
lowerback -14.2567 -1.96143 -11.1056
upperback -1.46744 -1.13962 0.991316
thorax 6.6682 -0.971717 7.1379
lowerneck -22.1975 -2.7127 -1.89557
upperneck 26.0564 -6.21966 6.61468
head 12.66 -2.39046 1.69506
rclavicle 6.06293e-015 4.77083e-015
rhumerus -30.5465 -12.1447 -75.986
rradius 24.5053
rwrist -1.57126
rhand -6.96351 -14.6419
rfingers 7.12502
rthumb 18.9059 -43.7431
lclavicle 6.06293e-015 4.77083e-015
lhumerus -26.2396 -31.9787 92.0766
lradius 36.96
lwrist 38.7055
lhand -28.2821 -3.3182
lfingers 7.12502
lthumb -1.65835 26.6551
rfemur -62.8778 18.3848 1.81016
rtibia 31.058
rfoot -12.3315 -25.7645
rtoes -10.4087
lfemur -9.02976 -14.0448 -28.0011
ltibia 6.49647
lfoot -10.5293 -5.9843
ltoes -4.29012
